# xmcd
#
# Track frame offsets: 
#        150
#        16313
#        35828
#        57533
#        86140
#        109442
#        129533
#        139069
#        161807
#        182242
#        199079
#        215434
#
# Disc length: 3177 seconds
#
# Revision: 0
# Processed by: cddbd v1.5.2PL0 Copyright (c) Steve Scherf et al.
# Submitted via: ExactAudioCopyFreeDBPlugin 1.0
#
DISCID=ba0c670c
DTITLE=Nick Woodland - The Beacon
DYEAR=2013
DGENRE=Blues
TTITLE0=Smell The Roses
TTITLE1=Something's Cooking
TTITLE2=She Will Be The One
TTITLE3=Handle On The Blues
TTITLE4=Let Go
TTITLE5=Velvet Glove
TTITLE6=The Waiting Game
TTITLE7=Story
TTITLE8=Cry Tonight
TTITLE9=The Times I Told You
TTITLE10=There For You
TTITLE11=Train Into Town
EXTD=
EXTT0=
EXTT1=
EXTT2=
EXTT3=
EXTT4=
EXTT5=
EXTT6=
EXTT7=
EXTT8=
EXTT9=
EXTT10=
EXTT11=
PLAYORDER=
